<svg xmlns="http://www.w3.org/2000/svg" width="87" height="87" viewBox="0 0 87 87" fill="none"><path d="M48.0203 35.18V57.5H41.1803V54.46C40.4869 55.4467 39.5403 56.2467 38.3403 56.86C37.1669 57.4467 35.8603 57.74 34.4203 57.74C32.7136 57.74 31.2069 57.3667 29.9003 56.62C28.5936 55.8467 27.5803 54.74 26.8603 53.3C26.1403 51.86 25.7803 50.1667 25.7803 48.22V35.18H32.5803V47.3C32.5803 48.7933 32.9669 49.9533 33.7403 50.78C34.5136 51.6067 35.5536 52.02 36.8603 52.02C38.1936 52.02 39.2469 51.6067 40.0203 50.78C40.7936 49.9533 41.1803 48.7933 41.1803 47.3V35.18H48.0203Z" fill="#272E35"></path><path d="M59.3402 35.18V57.5H52.5002V35.18H59.3402Z" fill="#272E35"></path><path fill-rule="evenodd" clip-rule="evenodd" d="M44.5 13C27.6553 13 14 26.6553 14 43.5C14 60.3447 27.6553 74 44.5 74C56.8307 74 67.4619 66.6824 72.2698 56.1337C73.3005 53.8722 75.9694 52.8745 78.2308 53.9053C80.4923 54.936 81.49 57.6049 80.4593 59.8663C74.243 73.5049 60.4851 83 44.5 83C22.6848 83 5 65.3152 5 43.5C5 21.6848 22.6848 4 44.5 4C61.1379 4 75.3628 14.2852 81.1839 28.8277C82.1075 31.135 80.9858 33.7542 78.6785 34.6777C76.3712 35.6013 73.752 34.4796 72.8284 32.1723C68.3279 20.9289 57.3344 13 44.5 13Z" fill="#272E35"></path><circle cx="56" cy="28" r="4.5" fill="#FF6E30"></circle></svg>